<?xml version="1.0" encoding="UTF-8" standalone="no"?>
<!-- Generator: Gravit.io -->
<svg xmlns="http://www.w3.org/2000/svg" xmlns:xlink="http://www.w3.org/1999/xlink" style="isolation:isolate" viewBox="0 0 250 250" width="250" height="250"><defs><clipPath id="_clipPath_n53caZr3RjA0sWeqFzhZDd9UjmRxBEAk"><rect width="250" height="250"/></clipPath></defs><g clip-path="url(#_clipPath_n53caZr3RjA0sWeqFzhZDd9UjmRxBEAk)"><g style="isolation:isolate" id="Icon"><path d=" M 101.676 113.092 C 94.498 107.606 87.939 117.708 85.917 105.724 C 86.237 103.851 87.085 97.976 88.75 96.25 C 90.415 94.524 92.898 96.949 94.25 95.25 C 95.974 93.083 95.095 90.319 97 89.25 C 99.555 87.815 102.675 89.899 103.75 89.5 C 104.825 89.101 105.5 85.618 109.614 85.575 C 119.022 91.847 106.7 94.772 114.419 102.048 Q 107.25 102.5 105.25 104.25 Q 103.25 106 101.676 113.092 L 101.676 113.092 Z " fill="rgb(248,209,78)"/><path d=" M 127.523 158.537 C 123.112 155.495 118.872 151.374 115.256 146.279 Q 102.838 128.782 102.426 114.342 Q 103.464 107.991 106 105.75 C 111.21 103.518 114.327 103.017 115.625 103.25 C 124 104.75 139.25 110.75 148.558 121.444 C 152.875 126.25 154.826 131.35 156.78 135.391 L 150.25 132.5 L 144.5 140 L 136.75 140.25 L 134.25 148.25 L 126.25 152 L 127.523 158.537 L 127.523 158.537 Z " fill="rgb(248,209,78)"/><path d=" M 128.523 159.537 C 138.807 166.692 150.009 168.051 156.331 162.519 C 163.162 156.542 164.06 149.093 157.78 136.391 L 150.75 133.5 L 144.75 140.75 L 137.25 141.5 L 135 149 L 127.25 152.5 L 128.523 159.537 L 128.523 159.537 Z " fill="rgb(248,209,78)"/></g><g style="isolation:isolate" id="Text"><path d=" M 95.494 136.324 L 95.494 136.324 Q 101.042 136.324 104.671 138.091 L 104.671 138.091 L 104.671 138.091 Q 108.3 139.858 109.896 142.898 L 109.896 142.898 L 109.896 142.898 Q 111.378 145.786 111.378 149.13 L 111.378 149.13 L 111.378 149.13 Q 111.378 151.372 110.751 153.519 L 110.751 153.519 L 110.751 153.519 Q 110.124 155.666 109.098 157.072 L 109.098 157.072 L 109.098 157.072 Q 108.604 157.756 107.73 157.756 L 107.73 157.756 L 107.16 157.68 L 105.07 157.3 L 105.07 157.3 Q 104.082 157.072 104.082 156.464 L 104.082 156.464 L 104.082 156.464 Q 104.082 156.008 104.462 155.514 L 104.462 155.514 L 104.462 155.514 Q 105.26 154.336 105.735 152.778 L 105.735 152.778 L 105.735 152.778 Q 106.21 151.22 106.21 149.624 L 106.21 149.624 L 106.21 149.624 Q 106.21 146.508 104.5 144.266 L 104.5 144.266 L 104.5 144.266 Q 102.79 142.024 99.408 141.264 L 99.408 141.264 L 99.408 141.264 Q 99.446 147.002 98.553 150.574 L 98.553 150.574 L 98.553 150.574 Q 97.66 154.146 95.646 155.932 L 95.646 155.932 L 95.646 155.932 Q 93.594 157.756 90.136 157.756 L 90.136 157.756 L 90.136 157.756 Q 87.438 157.756 85.557 156.654 L 85.557 156.654 L 85.557 156.654 Q 83.676 155.552 82.726 153.614 L 82.726 153.614 L 82.726 153.614 Q 81.776 151.752 81.776 149.396 L 81.776 149.396 L 81.776 149.396 Q 81.776 146.204 83.448 143.202 L 83.448 143.202 L 83.448 143.202 Q 85.12 140.2 88.16 138.262 L 88.16 138.262 L 88.16 138.262 Q 91.276 136.324 95.494 136.324 L 95.494 136.324 Z  M 90.136 153.196 L 90.136 153.196 Q 91.998 153.196 93.024 151.866 L 93.024 151.866 L 93.024 151.866 Q 94.05 150.536 94.392 147.914 L 94.392 147.914 L 94.392 147.914 Q 94.696 145.33 94.734 140.998 L 94.734 140.998 L 94.734 140.998 Q 92.34 141.302 90.611 142.537 L 90.611 142.537 L 90.611 142.537 Q 88.882 143.772 88.008 145.634 L 88.008 145.634 L 88.008 145.634 Q 87.172 147.344 87.172 149.206 L 87.172 149.206 L 87.172 149.206 Q 87.172 150.954 87.989 152.075 L 87.989 152.075 L 87.989 152.075 Q 88.806 153.196 90.136 153.196 L 90.136 153.196 Z " fill-rule="evenodd" fill="rgb(0,0,0)"/><path d=" M 118.702 144.81 L 141.54 144.81 L 141.54 144.81 Q 143.06 144.81 143.06 146.33 L 143.06 146.33 L 143.06 147.85 L 143.06 147.85 Q 143.06 149.37 141.54 149.37 L 141.54 149.37 L 118.702 149.37 L 118.702 149.37 Q 117.182 149.37 117.182 147.85 L 117.182 147.85 L 117.182 146.33 L 117.182 146.33 Q 117.182 144.81 118.702 144.81 L 118.702 144.81 Z " fill="rgb(0,0,0)"/><path d=" M 164.512 137.008 L 164.512 137.008 Q 166.108 137.046 166.108 138.528 L 166.108 138.528 L 166.108 140.01 L 166.108 140.01 Q 166.108 141.492 164.588 141.492 L 164.588 141.492 L 162.992 141.454 L 162.992 141.454 Q 162.65 141.416 162.042 141.416 L 162.042 141.416 L 162.042 141.416 Q 158.052 141.416 155.962 142.708 L 155.962 142.708 L 155.962 142.708 Q 153.872 144 153.872 147.23 L 153.872 147.23 L 153.872 147.23 Q 153.872 150.118 155.107 151.714 L 155.107 151.714 L 155.107 151.714 Q 156.342 153.31 158.47 153.766 L 158.47 153.766 L 158.47 153.766 Q 160.484 154.222 163.296 154.222 L 163.296 154.222 L 163.296 154.222 Q 164.094 154.222 164.512 154.602 L 164.512 154.602 L 164.512 154.602 Q 164.93 154.982 164.93 155.704 L 164.93 155.704 L 164.93 157.224 L 164.93 157.224 Q 164.93 157.946 164.512 158.326 L 164.512 158.326 L 164.512 158.326 Q 164.094 158.706 163.334 158.706 L 163.334 158.706 L 163.334 158.706 Q 159.154 158.706 156.266 157.908 L 156.266 157.908 L 156.266 157.908 Q 153.378 157.11 151.288 154.754 L 151.288 154.754 L 151.288 154.754 Q 148.97 152.208 148.97 147.23 L 148.97 147.23 L 148.97 147.23 Q 148.97 142.48 151.554 139.972 L 151.554 139.972 L 151.63 129.636 L 151.63 129.636 Q 151.63 128.116 153.15 128.116 L 153.15 128.116 L 154.67 128.116 L 154.67 128.116 Q 156.19 128.116 156.19 129.636 L 156.19 129.636 L 156.114 137.54 L 156.114 137.54 Q 158.394 136.932 161.776 136.932 L 161.776 136.932 L 161.776 136.932 Q 162.384 136.932 164.512 137.008 L 164.512 137.008 Z " fill="rgb(0,0,0)"/><path d=" M 86.39 110.92 C 86.66 111.32 86.85 111.76 86.97 112.23 C 87.12 112.81 87.2 113.41 87.2 114.01 C 87.2 114.58 87.14 115.15 87.02 115.71 C 86.88 116.35 86.69 116.98 86.44 117.59 C 86.24 118.11 85.95 118.58 85.58 119 C 85.17 119.46 84.68 119.86 84.14 120.17 C 83.6 120.48 83.02 120.72 82.41 120.87 C 81.75 121.03 81.08 121.12 80.4 121.12 C 80.39 121.12 80.38 121.12 80.37 121.12 L 79.14 121.03 C 79.1 121.02 79.06 121.02 79.02 121 C 79.01 121 79 121 78.99 121 C 78.91 120.99 78.82 120.98 78.73 120.98 C 78.54 120.98 78.35 121.02 78.17 121.08 C 78.08 121.11 77.99 121.17 77.93 121.24 C 77.86 121.32 77.81 121.41 77.78 121.5 C 77.72 121.7 77.69 121.91 77.69 122.11 L 77.69 124.02 C 77.69 124.23 77.72 124.44 77.78 124.64 C 77.83 124.78 77.9 124.91 77.99 125.02 C 78.06 125.12 78.16 125.2 78.26 125.26 C 78.46 125.36 78.68 125.43 78.9 125.47 C 79.17 125.51 79.44 125.54 79.71 125.56 C 80.17 125.58 80.63 125.6 81.08 125.6 C 82.08 125.6 83.07 125.5 84.04 125.3 C 84.87 125.13 85.68 124.87 86.45 124.51 C 87.22 124.17 87.92 123.7 88.54 123.12 C 89.31 122.39 89.98 121.56 90.53 120.65 C 91.08 119.74 91.5 118.76 91.78 117.73 C 92.07 116.68 92.22 115.6 92.22 114.51 C 92.22 113.93 92.17 113.36 92.08 112.8 C 91.99 112.26 91.85 111.73 91.66 111.21 C 91.47 110.69 91.24 110.18 90.96 109.69 C 90.66 109.16 90.32 108.66 89.93 108.19 C 89.18 107.26 88.3 106.45 87.3 105.8 C 85.99 104.92 84.57 104.2 83.08 103.65 C 82.93 103.6 82.82 103.47 82.77 103.31 C 82.73 103.16 82.77 102.99 82.87 102.87 L 89.48 94.9 C 89.49 94.88 89.5 94.87 89.51 94.86 C 89.58 94.8 89.64 94.73 89.69 94.65 C 89.7 94.62 89.72 94.59 89.73 94.56 C 89.74 94.5 89.76 94.43 89.77 94.36 C 89.79 94.23 89.81 94.1 89.82 93.97 L 89.82 91.91 C 89.82 91.67 89.78 91.44 89.71 91.22 C 89.67 91.1 89.6 90.99 89.51 90.9 C 89.43 90.82 89.32 90.75 89.2 90.71 C 88.98 90.64 88.74 90.6 88.51 90.6 L 74.47 90.6 C 74.24 90.6 74 90.64 73.78 90.71 C 73.66 90.75 73.56 90.82 73.47 90.9 C 73.38 90.99 73.31 91.1 73.27 91.22 C 73.2 91.44 73.16 91.67 73.16 91.91 L 73.16 93.72 C 73.16 93.96 73.2 94.19 73.27 94.41 C 73.31 94.53 73.38 94.64 73.47 94.73 C 73.56 94.81 73.66 94.88 73.78 94.92 C 74 94.99 74.24 95.03 74.47 95.03 L 83.69 95.03 L 76.26 103.96 C 76.25 103.97 76.24 103.98 76.23 103.99 C 76.13 104.09 76.05 104.2 76 104.33 C 75.95 104.46 75.92 104.59 75.92 104.72 C 75.92 104.82 75.94 104.91 75.96 105 C 75.98 105.07 76.02 105.14 76.06 105.2 C 76.11 105.28 76.18 105.34 76.25 105.4 C 76.37 105.49 76.5 105.57 76.64 105.63 C 77.07 105.86 77.51 106.06 77.95 106.26 C 78.64 106.56 79.34 106.84 80.04 107.11 C 80.94 107.48 81.83 107.86 82.71 108.26 C 83.19 108.47 83.66 108.7 84.13 108.95 C 84.6 109.2 85.05 109.51 85.46 109.87 C 85.82 110.17 86.13 110.53 86.39 110.92 Z  M 97.47 95.53 C 97.47 95.43 97.45 95.33 97.42 95.24 C 97.4 95.21 97.38 95.18 97.35 95.15 C 97.32 95.12 97.27 95.1 97.23 95.09 C 97.1 95.05 96.97 95.04 96.84 95.04 L 95.71 95.04 C 95.58 95.04 95.45 95.05 95.32 95.09 C 95.28 95.1 95.24 95.12 95.2 95.15 C 95.17 95.18 95.15 95.21 95.13 95.24 C 95.1 95.34 95.08 95.43 95.08 95.53 C 95.08 95.54 95.08 95.54 95.08 95.54 L 94.99 99.11 C 94.99 99.21 95.01 99.31 95.04 99.4 C 95.06 99.43 95.08 99.46 95.11 99.49 C 95.14 99.52 95.19 99.54 95.23 99.55 C 95.36 99.59 95.49 99.61 95.62 99.61 L 96.8 99.61 C 96.93 99.61 97.06 99.59 97.18 99.55 C 97.23 99.54 97.27 99.52 97.31 99.49 C 97.34 99.46 97.36 99.43 97.37 99.4 C 97.41 99.31 97.43 99.21 97.43 99.11 C 97.43 99.11 97.43 99.11 97.43 99.1 L 97.47 95.53 Z  M 101.78 99.61 C 101.92 99.61 102.05 99.59 102.19 99.55 C 102.24 99.54 102.29 99.52 102.33 99.48 C 102.36 99.46 102.38 99.43 102.4 99.39 C 102.44 99.3 102.45 99.21 102.45 99.11 C 102.45 99.11 102.45 99.11 102.45 99.1 L 102.5 95.53 C 102.5 95.43 102.48 95.33 102.44 95.24 C 102.43 95.21 102.41 95.18 102.38 95.15 C 102.34 95.12 102.3 95.1 102.25 95.09 C 102.13 95.05 102 95.04 101.87 95.04 L 100.69 95.04 C 100.56 95.04 100.43 95.05 100.31 95.09 C 100.26 95.1 100.22 95.12 100.18 95.15 C 100.15 95.18 100.13 95.21 100.11 95.24 C 100.08 95.34 100.06 95.43 100.06 95.53 C 100.06 95.53 100.06 95.54 100.06 95.54 L 100.01 99.11 C 100.01 99.21 100.03 99.31 100.07 99.4 C 100.08 99.43 100.1 99.46 100.13 99.49 C 100.17 99.52 100.21 99.54 100.26 99.55 C 100.39 99.59 100.52 99.61 100.65 99.61 L 101.78 99.61 Z  M 99.38 107.94 C 99.14 107.94 98.91 107.98 98.69 108.05 C 98.57 108.09 98.46 108.16 98.37 108.25 C 98.28 108.34 98.22 108.44 98.18 108.56 C 98.1 108.78 98.07 109.02 98.07 109.25 C 98.07 109.25 98.07 109.26 98.07 109.26 L 97.98 120.35 C 97.98 120.58 98.01 120.82 98.09 121.04 C 98.13 121.16 98.19 121.26 98.28 121.35 C 98.37 121.44 98.48 121.51 98.6 121.55 C 98.82 121.62 99.05 121.66 99.29 121.66 L 101.1 121.66 C 101.33 121.66 101.57 121.62 101.79 121.55 C 101.91 121.51 102.01 121.44 102.1 121.35 C 102.19 121.26 102.26 121.16 102.3 121.04 C 102.37 120.81 102.41 120.58 102.41 120.35 C 102.41 120.35 102.41 120.34 102.41 120.34 L 102.5 109.25 C 102.5 109.02 102.46 108.78 102.39 108.56 C 102.35 108.44 102.28 108.34 102.19 108.25 C 102.11 108.16 102 108.09 101.88 108.05 C 101.66 107.98 101.42 107.94 101.19 107.94 L 99.38 107.94 Z  M 69.17 109.66 C 69.17 109.42 69.13 109.19 69.06 108.97 C 69.02 108.85 68.95 108.74 68.87 108.66 C 68.78 108.57 68.67 108.5 68.55 108.46 C 68.33 108.39 68.1 108.35 67.86 108.35 L 66.05 108.35 C 65.81 108.35 65.58 108.39 65.36 108.46 C 65.24 108.5 65.13 108.57 65.04 108.66 C 64.96 108.74 64.89 108.85 64.85 108.97 C 64.78 109.19 64.74 109.43 64.74 109.66 C 64.74 109.66 64.74 109.66 64.74 109.66 L 64.65 120.76 C 64.65 120.99 64.69 121.22 64.76 121.45 C 64.8 121.56 64.87 121.67 64.95 121.76 C 65.04 121.85 65.15 121.91 65.27 121.95 C 65.49 122.03 65.72 122.07 65.96 122.07 L 67.77 122.07 C 67.95 122.07 68.12 122.05 68.3 122 C 68.4 121.98 68.51 121.94 68.6 121.88 C 68.68 121.83 68.75 121.77 68.81 121.7 C 68.88 121.61 68.94 121.52 68.99 121.42 C 69.06 121.23 69.25 121.12 69.45 121.12 L 70.03 121.12 C 70.27 121.12 70.5 121.08 70.72 121 C 70.84 120.96 70.95 120.9 71.04 120.81 C 71.13 120.72 71.19 120.61 71.23 120.49 C 71.31 120.27 71.35 120.04 71.35 119.8 L 71.35 118.58 C 71.35 118.35 71.31 118.11 71.23 117.89 C 71.19 117.77 71.13 117.66 71.04 117.58 C 70.95 117.49 70.84 117.42 70.72 117.38 C 70.5 117.31 70.27 117.27 70.03 117.27 L 69.12 117.27 L 69.17 109.66 Z " fill-rule="evenodd" fill="rgb(0,0,0)"/><path d=" M 113.107 108.074 L 114.129 108.074 L 114.129 108.074 Q 115.447 108.074 115.447 109.594 L 115.447 109.594 L 115.447 110.62 L 115.447 110.62 Q 115.447 112.14 114.129 112.14 L 114.129 112.14 L 113.074 112.14 L 113.074 112.178 L 113.074 112.178 Q 113.074 113.698 111.757 113.698 L 111.757 113.698 L 110.439 113.698 L 110.439 113.698 Q 109.121 113.698 109.121 112.178 L 109.121 112.178 L 109.187 98.954 L 109.187 98.954 Q 109.187 97.434 110.505 97.434 L 110.505 97.434 L 111.823 97.434 L 111.823 97.434 Q 113.14 97.434 113.14 98.954 L 113.14 98.954 L 113.107 108.074 Z  M 123.485 97.434 L 124.803 97.434 L 124.803 97.434 Q 126.121 97.434 126.121 98.954 L 126.121 98.954 L 126.088 113.432 L 126.088 113.432 Q 126.088 117.536 125.33 120.158 L 125.33 120.158 L 124.309 123.578 L 124.309 123.578 Q 124.309 124.3 123.897 124.699 L 123.897 124.699 L 123.897 124.699 Q 123.485 125.098 122.826 125.098 L 122.826 125.098 L 121.509 125.098 L 121.509 125.098 Q 120.981 125.098 120.636 124.813 L 120.636 124.813 L 120.636 124.813 Q 120.29 124.528 120.29 124.034 L 120.29 124.034 L 120.29 124.034 Q 120.29 123.806 120.355 123.578 L 120.355 123.578 L 121.344 120.234 L 121.344 120.234 Q 122.135 117.612 122.135 113.508 L 122.135 113.508 L 122.168 98.954 L 122.168 98.954 Q 122.168 97.434 123.485 97.434 L 123.485 97.434 Z " fill-rule="evenodd" fill="rgb(0,0,0)"/><path d=" M 147.818 102.558 L 142.816 102.492 L 142.816 104.993 L 147.785 105.026 L 147.785 105.026 Q 148.345 105.026 148.657 105.355 L 148.657 105.355 L 148.657 105.355 Q 148.97 105.684 148.97 106.276 L 148.97 106.276 L 148.97 107.691 L 148.97 107.691 Q 148.97 108.185 148.707 108.448 L 148.707 108.448 L 148.707 108.448 Q 148.444 108.711 147.752 108.81 L 147.752 108.81 L 147.752 108.81 Q 147.094 108.941 145.548 108.941 L 145.548 108.941 L 142.816 108.909 L 142.816 112.133 L 142.816 112.133 Q 145.646 112.133 147.39 112.463 L 147.39 112.463 L 147.39 112.463 Q 148.542 112.66 148.542 113.91 L 148.542 113.91 L 148.542 115.457 L 148.542 115.457 Q 148.542 116.576 147.621 116.576 L 147.621 116.576 L 147.094 116.51 L 147.094 116.51 Q 145.515 116.082 142.816 116.082 L 142.816 116.082 L 142.816 121.446 L 142.816 121.446 Q 142.816 123.552 141.599 124.276 L 141.599 124.276 L 141.599 124.276 Q 140.381 125 138.571 125 L 138.571 125 L 138.571 125 Q 136.696 125 134.935 124.128 L 134.935 124.128 L 134.935 124.128 Q 133.175 123.256 132.089 121.775 L 132.089 121.775 L 132.089 121.775 Q 130.97 120.327 130.97 118.517 L 130.97 118.517 L 130.97 118.517 Q 130.97 116.049 133.076 114.47 L 133.076 114.47 L 133.076 114.47 Q 135.182 112.89 138.868 112.397 L 138.868 112.397 L 138.868 108.843 L 132.813 108.777 L 132.813 108.777 Q 132.253 108.777 131.908 108.431 L 131.908 108.431 L 131.908 108.431 Q 131.562 108.086 131.595 107.494 L 131.595 107.494 L 131.628 106.144 L 131.628 106.144 Q 131.661 105.486 131.941 105.19 L 131.941 105.19 L 131.941 105.19 Q 132.22 104.894 132.813 104.894 L 132.813 104.894 L 138.868 104.96 L 138.868 102.459 L 132.813 102.393 L 132.813 102.393 Q 132.253 102.393 131.908 102.048 L 131.908 102.048 L 131.908 102.048 Q 131.562 101.702 131.595 101.11 L 131.595 101.11 L 131.628 99.761 L 131.628 99.761 Q 131.661 99.102 131.941 98.806 L 131.941 98.806 L 131.941 98.806 Q 132.22 98.51 132.813 98.51 L 132.813 98.51 L 138.868 98.576 L 138.868 97.523 L 138.868 97.523 Q 138.868 96.207 140.184 96.207 L 140.184 96.207 L 141.5 96.207 L 141.5 96.207 Q 142.816 96.207 142.816 97.523 L 142.816 97.523 L 142.816 98.609 L 147.785 98.642 L 147.785 98.642 Q 148.345 98.642 148.657 98.971 L 148.657 98.971 L 148.657 98.971 Q 148.97 99.3 148.97 99.892 L 148.97 99.892 L 148.97 101.307 L 148.97 101.307 Q 148.97 101.899 148.657 102.229 L 148.657 102.229 L 148.657 102.229 Q 148.345 102.558 147.818 102.558 L 147.818 102.558 Z  M 137.156 120.525 L 137.156 120.525 Q 137.453 120.623 137.749 120.623 L 137.749 120.623 L 137.749 120.623 Q 138.242 120.623 138.555 120.377 L 138.555 120.377 L 138.555 120.377 Q 138.868 120.13 138.868 119.669 L 138.868 119.669 L 138.868 116.247 L 138.868 116.247 Q 135.511 116.675 135.511 118.517 L 135.511 118.517 L 135.511 118.517 Q 135.511 119.34 135.857 119.801 L 135.857 119.801 L 135.857 119.801 Q 136.202 120.261 137.156 120.525 L 137.156 120.525 Z " fill-rule="evenodd" fill="rgb(0,0,0)"/><path d=" M 166.11 114.03 L 165.64 113.98 L 165.13 113.98 C 164.6 113.98 164.07 113.92 163.55 113.79 C 163.19 113.7 162.85 113.55 162.55 113.33 C 162.4 113.21 162.26 113.08 162.14 112.94 C 162.02 112.8 161.92 112.65 161.84 112.48 C 161.76 112.32 161.69 112.14 161.65 111.95 C 161.61 111.75 161.59 111.54 161.59 111.33 C 161.59 110.91 161.66 110.5 161.8 110.1 C 161.92 109.78 162.11 109.5 162.36 109.27 C 162.61 109.05 162.92 108.88 163.25 108.8 C 163.68 108.7 164.13 108.66 164.57 108.69 C 164.77 108.69 164.97 108.71 165.17 108.75 C 165.35 108.79 165.53 108.86 165.7 108.94 C 165.86 109.02 166.01 109.12 166.15 109.24 C 166.29 109.37 166.42 109.51 166.52 109.66 C 166.74 109.96 166.89 110.3 166.96 110.66 C 167.09 111.25 167.15 111.85 167.15 112.45 L 167.15 113.94 L 166.11 114.03 Z  M 177.61 89.84 C 177.61 89.62 177.57 89.39 177.5 89.18 C 177.46 89.07 177.4 88.96 177.31 88.87 C 177.22 88.78 177.11 88.72 176.99 88.67 C 176.77 88.6 176.54 88.55 176.31 88.55 L 174.47 88.5 C 174.47 88.5 174.46 88.5 174.46 88.5 C 174.25 88.49 174.04 88.52 173.83 88.58 C 173.71 88.62 173.6 88.68 173.51 88.77 C 173.42 88.86 173.35 88.96 173.31 89.08 C 173.23 89.3 173.2 89.52 173.2 89.75 L 173.2 93.83 L 155.02 93.83 C 154.79 93.83 154.56 93.87 154.34 93.94 C 154.22 93.98 154.12 94.04 154.03 94.13 C 153.94 94.22 153.88 94.32 153.84 94.44 C 153.76 94.66 153.73 94.89 153.73 95.12 L 153.73 96.91 C 153.73 97.14 153.76 97.37 153.84 97.59 C 153.88 97.71 153.94 97.81 154.03 97.9 C 154.12 97.99 154.22 98.05 154.34 98.09 C 154.56 98.16 154.79 98.2 155.02 98.2 L 173.23 98.2 L 173.33 106.97 C 173.33 106.98 173.33 106.98 173.33 106.98 C 173.33 107.65 173.24 108.31 173.06 108.95 C 172.81 109.85 172.26 110.63 171.5 111.17 C 171.52 110.19 171.43 109.2 171.23 108.23 C 171.14 107.76 171 107.3 170.82 106.85 C 170.67 106.48 170.49 106.12 170.28 105.78 C 170.09 105.48 169.88 105.19 169.64 104.93 C 169.4 104.68 169.13 104.45 168.85 104.25 C 168.55 104.03 168.23 103.85 167.89 103.7 C 167.51 103.52 167.11 103.39 166.71 103.29 C 166.21 103.17 165.71 103.09 165.2 103.05 C 164.55 103.05 163.89 103.1 163.24 103.21 C 162.71 103.29 162.19 103.43 161.69 103.61 C 161.24 103.77 160.81 103.97 160.41 104.22 C 160.03 104.45 159.67 104.72 159.34 105.02 C 159.01 105.32 158.72 105.66 158.46 106.03 C 158.21 106.4 157.99 106.8 157.81 107.22 C 157.62 107.7 157.48 108.19 157.39 108.7 C 157.27 109.33 157.22 109.97 157.22 110.6 C 157.22 110.94 157.25 111.28 157.3 111.61 C 157.36 111.91 157.44 112.2 157.54 112.49 C 157.64 112.76 157.77 113.03 157.93 113.28 C 158.09 113.55 158.28 113.8 158.49 114.04 C 158.88 114.52 159.34 114.94 159.85 115.29 C 160.47 115.71 161.14 116.07 161.84 116.34 C 162.56 116.61 163.3 116.82 164.05 116.96 C 164.85 117.1 165.66 117.18 166.47 117.18 L 167.22 117.18 L 166.89 125.22 C 166.89 125.45 166.93 125.67 167 125.89 C 167.04 126.01 167.1 126.11 167.19 126.2 C 167.28 126.29 167.38 126.35 167.5 126.39 C 167.72 126.46 167.95 126.5 168.18 126.5 L 169.97 126.5 C 170.2 126.5 170.43 126.46 170.65 126.39 C 170.77 126.35 170.87 126.29 170.96 126.2 C 171.05 126.11 171.11 126.01 171.15 125.89 C 171.22 125.67 171.26 125.44 171.26 125.21 C 171.26 125.2 171.26 125.2 171.26 125.19 L 171.57 116.63 C 171.58 116.43 171.7 116.26 171.88 116.18 C 172.76 115.83 173.59 115.38 174.37 114.85 C 175.03 114.4 175.62 113.87 176.14 113.27 C 176.42 112.96 176.66 112.63 176.88 112.29 C 177.06 111.99 177.22 111.68 177.35 111.35 C 177.46 111.05 177.55 110.74 177.61 110.43 C 177.67 110.12 177.7 109.8 177.7 109.49 L 177.65 98.2 L 181.2 98.2 C 181.43 98.2 181.66 98.16 181.88 98.09 C 182 98.05 182.1 97.99 182.19 97.9 C 182.27 97.81 182.34 97.71 182.38 97.59 C 182.45 97.37 182.49 97.14 182.49 96.91 L 182.49 95.12 C 182.49 94.89 182.45 94.66 182.38 94.44 C 182.34 94.32 182.27 94.22 182.19 94.13 C 182.1 94.04 182 93.98 181.88 93.94 C 181.66 93.87 181.43 93.83 181.2 93.83 L 177.61 93.83 L 177.61 89.84 Z " fill-rule="evenodd" fill="rgb(0,0,0)"/></g></g></svg>