<?xml version="1.0" encoding="UTF-8" standalone="no"?>
<!-- Generator: Gravit.io -->
<svg xmlns="http://www.w3.org/2000/svg" xmlns:xlink="http://www.w3.org/1999/xlink" style="isolation:isolate" viewBox="0 0 260 275" width="260" height="275"><defs><clipPath id="_clipPath_wts3oBtLgmIU5oNj3vQocdbmp6SqpuXb"><rect width="260" height="275"/></clipPath></defs><g clip-path="url(#_clipPath_wts3oBtLgmIU5oNj3vQocdbmp6SqpuXb)"><path d=" M 5 137.5 C 5 68.511 61.011 12.5 130 12.5 C 198.989 12.5 255 68.511 255 137.5 C 255 206.489 198.989 262.5 130 262.5 C 61.011 262.5 5 206.489 5 137.5 Z " fill="none" vector-effect="non-scaling-stroke" stroke-width="10" stroke="rgb(248,209,78)" stroke-linejoin="miter" stroke-linecap="square" stroke-miterlimit="3"/><path d=" M 117.5 12.5 C 117.5 5.601 123.101 0 130 0 C 136.899 0 142.5 5.601 142.5 12.5 C 142.5 19.399 136.899 25 130 25 C 123.101 25 117.5 19.399 117.5 12.5 Z " fill="rgb(45,159,219)"/><path d=" M 117.5 262.5 C 117.5 255.601 123.101 250 130 250 C 136.899 250 142.5 255.601 142.5 262.5 C 142.5 269.399 136.899 275 130 275 C 123.101 275 117.5 269.399 117.5 262.5 Z " fill="rgb(45,159,219)"/></g></svg>