<?xml version="1.0" encoding="UTF-8" standalone="no"?>
<!-- Generator: Gravit.io -->
<svg xmlns="http://www.w3.org/2000/svg" xmlns:xlink="http://www.w3.org/1999/xlink" style="isolation:isolate" viewBox="0 0 117.84 80.349" width="117.84" height="80.349"><defs><clipPath id="_clipPath_bnukjLZ3FwxJqRAbwaPu8i264D1LRxUa"><rect width="117.84" height="80.349"/></clipPath></defs><g clip-path="url(#_clipPath_bnukjLZ3FwxJqRAbwaPu8i264D1LRxUa)"><g style="isolation:isolate" id="Icon"><path d=" M 37.026 27.516 C 29.848 22.031 23.289 32.132 21.267 20.149 C 21.587 18.276 22.435 12.4 24.1 10.675 C 25.765 8.949 28.248 11.374 29.6 9.675 C 31.324 7.508 30.445 4.744 32.35 3.675 C 34.905 2.24 38.025 4.323 39.1 3.925 C 40.175 3.526 40.85 0.042 44.964 0 C 54.372 6.272 42.05 9.196 49.769 16.473 Q 42.6 16.925 40.6 18.675 Q 38.6 20.425 37.026 27.516 L 37.026 27.516 Z " fill="rgb(248,209,78)"/><path d=" M 62.873 72.961 C 58.462 69.92 54.222 65.799 50.606 60.704 Q 38.188 43.206 37.776 28.766 Q 38.814 22.416 41.35 20.175 C 46.56 17.943 49.677 17.442 50.975 17.675 C 59.35 19.175 74.6 25.175 83.908 35.869 C 88.225 40.675 90.176 45.774 92.13 49.815 L 85.6 46.925 L 79.85 54.425 L 72.1 54.675 L 69.6 62.675 L 61.6 66.425 L 62.873 72.961 L 62.873 72.961 Z " fill="rgb(248,209,78)"/><path d=" M 63.873 73.961 C 74.157 81.116 85.359 82.475 91.681 76.944 C 98.512 70.967 99.41 63.517 93.13 50.815 L 86.1 47.925 L 80.1 55.175 L 72.6 55.925 L 70.35 63.425 L 62.6 66.925 L 63.873 73.961 L 63.873 73.961 Z " fill="rgb(248,209,78)"/></g><g style="isolation:isolate" id="Text"><path d=" M 30.844 50.749 L 30.844 50.749 Q 36.392 50.749 40.021 52.516 L 40.021 52.516 L 40.021 52.516 Q 43.65 54.283 45.246 57.323 L 45.246 57.323 L 45.246 57.323 Q 46.728 60.211 46.728 63.555 L 46.728 63.555 L 46.728 63.555 Q 46.728 65.797 46.101 67.944 L 46.101 67.944 L 46.101 67.944 Q 45.474 70.091 44.448 71.497 L 44.448 71.497 L 44.448 71.497 Q 43.954 72.181 43.08 72.181 L 43.08 72.181 L 42.51 72.105 L 40.42 71.725 L 40.42 71.725 Q 39.432 71.497 39.432 70.889 L 39.432 70.889 L 39.432 70.889 Q 39.432 70.433 39.812 69.939 L 39.812 69.939 L 39.812 69.939 Q 40.61 68.761 41.085 67.203 L 41.085 67.203 L 41.085 67.203 Q 41.56 65.645 41.56 64.049 L 41.56 64.049 L 41.56 64.049 Q 41.56 60.933 39.85 58.691 L 39.85 58.691 L 39.85 58.691 Q 38.14 56.449 34.758 55.689 L 34.758 55.689 L 34.758 55.689 Q 34.796 61.427 33.903 64.999 L 33.903 64.999 L 33.903 64.999 Q 33.01 68.571 30.996 70.357 L 30.996 70.357 L 30.996 70.357 Q 28.944 72.181 25.486 72.181 L 25.486 72.181 L 25.486 72.181 Q 22.788 72.181 20.907 71.079 L 20.907 71.079 L 20.907 71.079 Q 19.026 69.977 18.076 68.039 L 18.076 68.039 L 18.076 68.039 Q 17.126 66.177 17.126 63.821 L 17.126 63.821 L 17.126 63.821 Q 17.126 60.629 18.798 57.627 L 18.798 57.627 L 18.798 57.627 Q 20.47 54.625 23.51 52.687 L 23.51 52.687 L 23.51 52.687 Q 26.626 50.749 30.844 50.749 L 30.844 50.749 Z  M 25.486 67.621 L 25.486 67.621 Q 27.348 67.621 28.374 66.291 L 28.374 66.291 L 28.374 66.291 Q 29.4 64.961 29.742 62.339 L 29.742 62.339 L 29.742 62.339 Q 30.046 59.755 30.084 55.423 L 30.084 55.423 L 30.084 55.423 Q 27.69 55.727 25.961 56.962 L 25.961 56.962 L 25.961 56.962 Q 24.232 58.197 23.358 60.059 L 23.358 60.059 L 23.358 60.059 Q 22.522 61.769 22.522 63.631 L 22.522 63.631 L 22.522 63.631 Q 22.522 65.379 23.339 66.5 L 23.339 66.5 L 23.339 66.5 Q 24.156 67.621 25.486 67.621 L 25.486 67.621 Z " fill-rule="evenodd" fill="rgb(0,0,0)"/><path d=" M 54.052 59.235 L 76.89 59.235 L 76.89 59.235 Q 78.41 59.235 78.41 60.755 L 78.41 60.755 L 78.41 62.275 L 78.41 62.275 Q 78.41 63.795 76.89 63.795 L 76.89 63.795 L 54.052 63.795 L 54.052 63.795 Q 52.532 63.795 52.532 62.275 L 52.532 62.275 L 52.532 60.755 L 52.532 60.755 Q 52.532 59.235 54.052 59.235 L 54.052 59.235 Z " fill="rgb(0,0,0)"/><path d=" M 99.862 51.433 L 99.862 51.433 Q 101.458 51.471 101.458 52.953 L 101.458 52.953 L 101.458 54.435 L 101.458 54.435 Q 101.458 55.917 99.938 55.917 L 99.938 55.917 L 98.342 55.879 L 98.342 55.879 Q 98 55.841 97.392 55.841 L 97.392 55.841 L 97.392 55.841 Q 93.402 55.841 91.312 57.133 L 91.312 57.133 L 91.312 57.133 Q 89.222 58.425 89.222 61.655 L 89.222 61.655 L 89.222 61.655 Q 89.222 64.543 90.457 66.139 L 90.457 66.139 L 90.457 66.139 Q 91.692 67.735 93.82 68.191 L 93.82 68.191 L 93.82 68.191 Q 95.834 68.647 98.646 68.647 L 98.646 68.647 L 98.646 68.647 Q 99.444 68.647 99.862 69.027 L 99.862 69.027 L 99.862 69.027 Q 100.28 69.407 100.28 70.129 L 100.28 70.129 L 100.28 71.649 L 100.28 71.649 Q 100.28 72.371 99.862 72.751 L 99.862 72.751 L 99.862 72.751 Q 99.444 73.131 98.684 73.131 L 98.684 73.131 L 98.684 73.131 Q 94.504 73.131 91.616 72.333 L 91.616 72.333 L 91.616 72.333 Q 88.728 71.535 86.638 69.179 L 86.638 69.179 L 86.638 69.179 Q 84.32 66.633 84.32 61.655 L 84.32 61.655 L 84.32 61.655 Q 84.32 56.905 86.904 54.397 L 86.904 54.397 L 86.98 44.061 L 86.98 44.061 Q 86.98 42.541 88.5 42.541 L 88.5 42.541 L 90.02 42.541 L 90.02 42.541 Q 91.54 42.541 91.54 44.061 L 91.54 44.061 L 91.464 51.965 L 91.464 51.965 Q 93.744 51.357 97.126 51.357 L 97.126 51.357 L 97.126 51.357 Q 97.734 51.357 99.862 51.433 L 99.862 51.433 Z " fill="rgb(0,0,0)"/><path d=" M 21.74 25.345 C 22.01 25.745 22.2 26.185 22.32 26.655 C 22.47 27.235 22.55 27.835 22.55 28.435 C 22.55 29.005 22.49 29.575 22.37 30.135 C 22.23 30.775 22.04 31.405 21.79 32.015 C 21.59 32.535 21.3 33.005 20.93 33.425 C 20.52 33.885 20.03 34.285 19.49 34.595 C 18.95 34.905 18.37 35.145 17.76 35.295 C 17.1 35.455 16.43 35.545 15.75 35.545 C 15.74 35.545 15.73 35.545 15.72 35.545 L 14.49 35.455 C 14.45 35.445 14.41 35.445 14.37 35.425 C 14.36 35.425 14.35 35.425 14.34 35.425 C 14.26 35.415 14.17 35.405 14.08 35.405 C 13.89 35.405 13.7 35.445 13.52 35.505 C 13.43 35.535 13.34 35.595 13.28 35.665 C 13.21 35.745 13.16 35.835 13.13 35.925 C 13.07 36.125 13.04 36.335 13.04 36.535 L 13.04 38.445 C 13.04 38.655 13.07 38.865 13.13 39.065 C 13.18 39.205 13.25 39.335 13.34 39.445 C 13.41 39.545 13.51 39.625 13.61 39.685 C 13.81 39.785 14.03 39.855 14.25 39.895 C 14.52 39.935 14.79 39.965 15.06 39.985 C 15.52 40.005 15.98 40.025 16.43 40.025 C 17.43 40.025 18.42 39.925 19.39 39.725 C 20.22 39.555 21.03 39.295 21.8 38.935 C 22.57 38.595 23.27 38.125 23.89 37.545 C 24.66 36.815 25.33 35.985 25.88 35.075 C 26.43 34.165 26.85 33.185 27.13 32.155 C 27.42 31.105 27.57 30.025 27.57 28.935 C 27.57 28.355 27.52 27.785 27.43 27.225 C 27.34 26.685 27.2 26.155 27.01 25.635 C 26.82 25.115 26.59 24.605 26.31 24.115 C 26.01 23.585 25.67 23.085 25.28 22.615 C 24.53 21.685 23.65 20.875 22.65 20.225 C 21.34 19.345 19.92 18.625 18.43 18.075 C 18.28 18.025 18.17 17.895 18.12 17.735 C 18.08 17.585 18.12 17.415 18.22 17.295 L 24.83 9.325 C 24.84 9.305 24.85 9.295 24.86 9.285 C 24.93 9.225 24.99 9.155 25.04 9.075 C 25.05 9.045 25.07 9.015 25.08 8.985 C 25.09 8.925 25.11 8.855 25.12 8.785 C 25.14 8.655 25.16 8.525 25.17 8.395 L 25.17 6.335 C 25.17 6.095 25.13 5.865 25.06 5.645 C 25.02 5.525 24.95 5.415 24.86 5.325 C 24.78 5.245 24.67 5.175 24.55 5.135 C 24.33 5.065 24.09 5.025 23.86 5.025 L 9.82 5.025 C 9.59 5.025 9.35 5.065 9.13 5.135 C 9.01 5.175 8.91 5.245 8.82 5.325 C 8.73 5.415 8.66 5.525 8.62 5.645 C 8.55 5.865 8.51 6.095 8.51 6.335 L 8.51 8.145 C 8.51 8.385 8.55 8.615 8.62 8.835 C 8.66 8.955 8.73 9.065 8.82 9.155 C 8.91 9.235 9.01 9.305 9.13 9.345 C 9.35 9.415 9.59 9.455 9.82 9.455 L 19.04 9.455 L 11.61 18.385 C 11.6 18.395 11.59 18.405 11.58 18.415 C 11.48 18.515 11.4 18.625 11.35 18.755 C 11.3 18.885 11.27 19.015 11.27 19.145 C 11.27 19.245 11.29 19.335 11.31 19.425 C 11.33 19.495 11.37 19.565 11.41 19.625 C 11.46 19.705 11.53 19.765 11.6 19.825 C 11.72 19.915 11.85 19.995 11.99 20.055 C 12.42 20.285 12.86 20.485 13.3 20.685 C 13.99 20.985 14.69 21.265 15.39 21.535 C 16.29 21.905 17.18 22.285 18.06 22.685 C 18.54 22.895 19.01 23.125 19.48 23.375 C 19.95 23.625 20.4 23.935 20.81 24.295 C 21.17 24.595 21.48 24.955 21.74 25.345 Z  M 32.82 9.955 C 32.82 9.855 32.8 9.755 32.77 9.665 C 32.75 9.635 32.73 9.605 32.7 9.575 C 32.67 9.545 32.62 9.525 32.58 9.515 C 32.45 9.475 32.32 9.465 32.19 9.465 L 31.06 9.465 C 30.93 9.465 30.8 9.475 30.67 9.515 C 30.63 9.525 30.59 9.545 30.55 9.575 C 30.52 9.605 30.5 9.635 30.48 9.665 C 30.45 9.765 30.43 9.855 30.43 9.955 C 30.43 9.965 30.43 9.965 30.43 9.965 L 30.34 13.535 C 30.34 13.635 30.36 13.735 30.39 13.825 C 30.41 13.855 30.43 13.885 30.46 13.915 C 30.49 13.945 30.54 13.965 30.58 13.975 C 30.71 14.015 30.84 14.035 30.97 14.035 L 32.15 14.035 C 32.28 14.035 32.41 14.015 32.53 13.975 C 32.58 13.965 32.62 13.945 32.66 13.915 C 32.69 13.885 32.71 13.855 32.72 13.825 C 32.76 13.735 32.78 13.635 32.78 13.535 C 32.78 13.535 32.78 13.535 32.78 13.525 L 32.82 9.955 Z  M 37.13 14.035 C 37.27 14.035 37.4 14.015 37.54 13.975 C 37.59 13.965 37.64 13.945 37.68 13.905 C 37.71 13.885 37.73 13.855 37.75 13.815 C 37.79 13.725 37.8 13.635 37.8 13.535 C 37.8 13.535 37.8 13.535 37.8 13.525 L 37.85 9.955 C 37.85 9.855 37.83 9.755 37.79 9.665 C 37.78 9.635 37.76 9.605 37.73 9.575 C 37.69 9.545 37.65 9.525 37.6 9.515 C 37.48 9.475 37.35 9.465 37.22 9.465 L 36.04 9.465 C 35.91 9.465 35.78 9.475 35.66 9.515 C 35.61 9.525 35.57 9.545 35.53 9.575 C 35.5 9.605 35.48 9.635 35.46 9.665 C 35.43 9.765 35.41 9.855 35.41 9.955 C 35.41 9.955 35.41 9.965 35.41 9.965 L 35.36 13.535 C 35.36 13.635 35.38 13.735 35.42 13.825 C 35.43 13.855 35.45 13.885 35.48 13.915 C 35.52 13.945 35.56 13.965 35.61 13.975 C 35.74 14.015 35.87 14.035 36 14.035 L 37.13 14.035 Z  M 34.73 22.365 C 34.49 22.365 34.26 22.405 34.04 22.475 C 33.92 22.515 33.81 22.585 33.72 22.675 C 33.63 22.765 33.57 22.865 33.53 22.985 C 33.45 23.205 33.42 23.445 33.42 23.675 C 33.42 23.675 33.42 23.685 33.42 23.685 L 33.33 34.775 C 33.33 35.005 33.36 35.245 33.44 35.465 C 33.48 35.585 33.54 35.685 33.63 35.775 C 33.72 35.865 33.83 35.935 33.95 35.975 C 34.17 36.045 34.4 36.085 34.64 36.085 L 36.45 36.085 C 36.68 36.085 36.92 36.045 37.14 35.975 C 37.26 35.935 37.36 35.865 37.45 35.775 C 37.54 35.685 37.61 35.585 37.65 35.465 C 37.72 35.235 37.76 35.005 37.76 34.775 C 37.76 34.775 37.76 34.765 37.76 34.765 L 37.85 23.675 C 37.85 23.445 37.81 23.205 37.74 22.985 C 37.7 22.865 37.63 22.765 37.54 22.675 C 37.46 22.585 37.35 22.515 37.23 22.475 C 37.01 22.405 36.77 22.365 36.54 22.365 L 34.73 22.365 Z  M 4.52 24.085 C 4.52 23.845 4.48 23.615 4.41 23.395 C 4.37 23.275 4.3 23.165 4.22 23.085 C 4.13 22.995 4.02 22.925 3.9 22.885 C 3.68 22.815 3.45 22.775 3.21 22.775 L 1.4 22.775 C 1.16 22.775 0.93 22.815 0.71 22.885 C 0.59 22.925 0.48 22.995 0.39 23.085 C 0.31 23.165 0.24 23.275 0.2 23.395 C 0.13 23.615 0.09 23.855 0.09 24.085 C 0.09 24.085 0.09 24.085 0.09 24.085 L 0 35.185 C 0 35.415 0.04 35.645 0.11 35.875 C 0.15 35.985 0.22 36.095 0.3 36.185 C 0.39 36.275 0.5 36.335 0.62 36.375 C 0.84 36.455 1.07 36.495 1.31 36.495 L 3.12 36.495 C 3.3 36.495 3.47 36.475 3.65 36.425 C 3.75 36.405 3.86 36.365 3.95 36.305 C 4.03 36.255 4.1 36.195 4.16 36.125 C 4.23 36.035 4.29 35.945 4.34 35.845 C 4.41 35.655 4.6 35.545 4.8 35.545 L 5.38 35.545 C 5.62 35.545 5.85 35.505 6.07 35.425 C 6.19 35.385 6.3 35.325 6.39 35.235 C 6.48 35.145 6.54 35.035 6.58 34.915 C 6.66 34.695 6.7 34.465 6.7 34.225 L 6.7 33.005 C 6.7 32.775 6.66 32.535 6.58 32.315 C 6.54 32.195 6.48 32.085 6.39 32.005 C 6.3 31.915 6.19 31.845 6.07 31.805 C 5.85 31.735 5.62 31.695 5.38 31.695 L 4.47 31.695 L 4.52 24.085 Z " fill-rule="evenodd" fill="rgb(0,0,0)"/><path d=" M 48.457 22.499 L 49.479 22.499 L 49.479 22.499 Q 50.797 22.499 50.797 24.019 L 50.797 24.019 L 50.797 25.045 L 50.797 25.045 Q 50.797 26.565 49.479 26.565 L 49.479 26.565 L 48.424 26.565 L 48.424 26.603 L 48.424 26.603 Q 48.424 28.123 47.107 28.123 L 47.107 28.123 L 45.789 28.123 L 45.789 28.123 Q 44.471 28.123 44.471 26.603 L 44.471 26.603 L 44.537 13.379 L 44.537 13.379 Q 44.537 11.859 45.855 11.859 L 45.855 11.859 L 47.173 11.859 L 47.173 11.859 Q 48.49 11.859 48.49 13.379 L 48.49 13.379 L 48.457 22.499 Z  M 58.835 11.859 L 60.153 11.859 L 60.153 11.859 Q 61.471 11.859 61.471 13.379 L 61.471 13.379 L 61.438 27.857 L 61.438 27.857 Q 61.438 31.961 60.68 34.583 L 60.68 34.583 L 59.659 38.003 L 59.659 38.003 Q 59.659 38.725 59.247 39.124 L 59.247 39.124 L 59.247 39.124 Q 58.835 39.523 58.176 39.523 L 58.176 39.523 L 56.859 39.523 L 56.859 39.523 Q 56.331 39.523 55.986 39.238 L 55.986 39.238 L 55.986 39.238 Q 55.64 38.953 55.64 38.459 L 55.64 38.459 L 55.64 38.459 Q 55.64 38.231 55.705 38.003 L 55.705 38.003 L 56.694 34.659 L 56.694 34.659 Q 57.485 32.037 57.485 27.933 L 57.485 27.933 L 57.518 13.379 L 57.518 13.379 Q 57.518 11.859 58.835 11.859 L 58.835 11.859 Z " fill-rule="evenodd" fill="rgb(0,0,0)"/><path d=" M 83.168 16.982 L 78.166 16.916 L 78.166 19.417 L 83.135 19.45 L 83.135 19.45 Q 83.695 19.45 84.007 19.779 L 84.007 19.779 L 84.007 19.779 Q 84.32 20.108 84.32 20.701 L 84.32 20.701 L 84.32 22.116 L 84.32 22.116 Q 84.32 22.609 84.057 22.872 L 84.057 22.872 L 84.057 22.872 Q 83.794 23.136 83.102 23.234 L 83.102 23.234 L 83.102 23.234 Q 82.444 23.366 80.898 23.366 L 80.898 23.366 L 78.166 23.333 L 78.166 26.558 L 78.166 26.558 Q 80.996 26.558 82.74 26.887 L 82.74 26.887 L 82.74 26.887 Q 83.892 27.085 83.892 28.335 L 83.892 28.335 L 83.892 29.882 L 83.892 29.882 Q 83.892 31 82.971 31 L 82.971 31 L 82.444 30.935 L 82.444 30.935 Q 80.865 30.507 78.166 30.507 L 78.166 30.507 L 78.166 35.871 L 78.166 35.871 Q 78.166 37.977 76.949 38.701 L 76.949 38.701 L 76.949 38.701 Q 75.731 39.425 73.921 39.425 L 73.921 39.425 L 73.921 39.425 Q 72.046 39.425 70.285 38.553 L 70.285 38.553 L 70.285 38.553 Q 68.525 37.681 67.439 36.2 L 67.439 36.2 L 67.439 36.2 Q 66.32 34.752 66.32 32.942 L 66.32 32.942 L 66.32 32.942 Q 66.32 30.474 68.426 28.894 L 68.426 28.894 L 68.426 28.894 Q 70.532 27.315 74.218 26.821 L 74.218 26.821 L 74.218 23.267 L 68.163 23.202 L 68.163 23.202 Q 67.603 23.202 67.258 22.856 L 67.258 22.856 L 67.258 22.856 Q 66.912 22.51 66.945 21.918 L 66.945 21.918 L 66.978 20.569 L 66.978 20.569 Q 67.011 19.911 67.291 19.615 L 67.291 19.615 L 67.291 19.615 Q 67.57 19.319 68.163 19.319 L 68.163 19.319 L 74.218 19.384 L 74.218 16.883 L 68.163 16.818 L 68.163 16.818 Q 67.603 16.818 67.258 16.472 L 67.258 16.472 L 67.258 16.472 Q 66.912 16.127 66.945 15.534 L 66.945 15.534 L 66.978 14.185 L 66.978 14.185 Q 67.011 13.527 67.291 13.231 L 67.291 13.231 L 67.291 13.231 Q 67.57 12.935 68.163 12.935 L 68.163 12.935 L 74.218 13 L 74.218 11.947 L 74.218 11.947 Q 74.218 10.631 75.534 10.631 L 75.534 10.631 L 76.85 10.631 L 76.85 10.631 Q 78.166 10.631 78.166 11.947 L 78.166 11.947 L 78.166 13.033 L 83.135 13.066 L 83.135 13.066 Q 83.695 13.066 84.007 13.395 L 84.007 13.395 L 84.007 13.395 Q 84.32 13.724 84.32 14.317 L 84.32 14.317 L 84.32 15.732 L 84.32 15.732 Q 84.32 16.324 84.007 16.653 L 84.007 16.653 L 84.007 16.653 Q 83.695 16.982 83.168 16.982 L 83.168 16.982 Z  M 72.506 34.949 L 72.506 34.949 Q 72.803 35.048 73.099 35.048 L 73.099 35.048 L 73.099 35.048 Q 73.592 35.048 73.905 34.801 L 73.905 34.801 L 73.905 34.801 Q 74.218 34.554 74.218 34.094 L 74.218 34.094 L 74.218 30.671 L 74.218 30.671 Q 70.861 31.099 70.861 32.942 L 70.861 32.942 L 70.861 32.942 Q 70.861 33.765 71.207 34.225 L 71.207 34.225 L 71.207 34.225 Q 71.552 34.686 72.506 34.949 L 72.506 34.949 Z " fill-rule="evenodd" fill="rgb(0,0,0)"/><path d=" M 101.46 28.455 L 100.99 28.405 L 100.48 28.405 C 99.95 28.405 99.42 28.345 98.9 28.215 C 98.54 28.125 98.2 27.975 97.9 27.755 C 97.75 27.635 97.61 27.505 97.49 27.365 C 97.37 27.225 97.27 27.075 97.19 26.905 C 97.11 26.745 97.04 26.565 97 26.375 C 96.96 26.175 96.94 25.965 96.94 25.755 C 96.94 25.335 97.01 24.925 97.15 24.525 C 97.27 24.205 97.46 23.925 97.71 23.695 C 97.96 23.475 98.27 23.305 98.6 23.225 C 99.03 23.125 99.48 23.085 99.92 23.115 C 100.12 23.115 100.32 23.135 100.52 23.175 C 100.7 23.215 100.88 23.285 101.05 23.365 C 101.21 23.445 101.36 23.545 101.5 23.665 C 101.64 23.795 101.77 23.935 101.87 24.085 C 102.09 24.385 102.24 24.725 102.31 25.085 C 102.44 25.675 102.5 26.275 102.5 26.875 L 102.5 28.365 L 101.46 28.455 Z  M 112.96 4.265 C 112.96 4.045 112.92 3.815 112.85 3.605 C 112.81 3.495 112.75 3.385 112.66 3.295 C 112.57 3.205 112.46 3.145 112.34 3.095 C 112.12 3.025 111.89 2.975 111.66 2.975 L 109.82 2.925 C 109.82 2.925 109.81 2.925 109.81 2.925 C 109.6 2.915 109.39 2.945 109.18 3.005 C 109.06 3.045 108.95 3.105 108.86 3.195 C 108.77 3.285 108.7 3.385 108.66 3.505 C 108.58 3.725 108.55 3.945 108.55 4.175 L 108.55 8.255 L 90.37 8.255 C 90.14 8.255 89.91 8.295 89.69 8.365 C 89.57 8.405 89.47 8.465 89.38 8.555 C 89.29 8.645 89.23 8.745 89.19 8.865 C 89.11 9.085 89.08 9.315 89.08 9.545 L 89.08 11.335 C 89.08 11.565 89.11 11.795 89.19 12.015 C 89.23 12.135 89.29 12.235 89.38 12.325 C 89.47 12.415 89.57 12.475 89.69 12.515 C 89.91 12.585 90.14 12.625 90.37 12.625 L 108.58 12.625 L 108.68 21.395 C 108.68 21.405 108.68 21.405 108.68 21.405 C 108.68 22.075 108.59 22.735 108.41 23.375 C 108.16 24.275 107.61 25.055 106.85 25.595 C 106.87 24.615 106.78 23.625 106.58 22.655 C 106.49 22.185 106.35 21.725 106.17 21.275 C 106.02 20.905 105.84 20.545 105.63 20.205 C 105.44 19.905 105.23 19.615 104.99 19.355 C 104.75 19.105 104.48 18.875 104.2 18.675 C 103.9 18.455 103.58 18.275 103.24 18.125 C 102.86 17.945 102.46 17.815 102.06 17.715 C 101.56 17.595 101.06 17.515 100.55 17.475 C 99.9 17.475 99.24 17.525 98.59 17.635 C 98.06 17.715 97.54 17.855 97.04 18.035 C 96.59 18.195 96.16 18.395 95.76 18.645 C 95.38 18.875 95.02 19.145 94.69 19.445 C 94.36 19.745 94.07 20.085 93.81 20.455 C 93.56 20.825 93.34 21.225 93.16 21.645 C 92.97 22.125 92.83 22.615 92.74 23.125 C 92.62 23.755 92.57 24.395 92.57 25.025 C 92.57 25.365 92.6 25.705 92.65 26.035 C 92.71 26.335 92.79 26.625 92.89 26.915 C 92.99 27.185 93.12 27.455 93.28 27.705 C 93.44 27.975 93.63 28.225 93.84 28.465 C 94.23 28.945 94.69 29.365 95.2 29.715 C 95.82 30.135 96.49 30.495 97.19 30.765 C 97.91 31.035 98.65 31.245 99.4 31.385 C 100.2 31.525 101.01 31.605 101.82 31.605 L 102.57 31.605 L 102.24 39.645 C 102.24 39.875 102.28 40.095 102.35 40.315 C 102.39 40.435 102.45 40.535 102.54 40.625 C 102.63 40.715 102.73 40.775 102.85 40.815 C 103.07 40.885 103.3 40.925 103.53 40.925 L 105.32 40.925 C 105.55 40.925 105.78 40.885 106 40.815 C 106.12 40.775 106.22 40.715 106.31 40.625 C 106.4 40.535 106.46 40.435 106.5 40.315 C 106.57 40.095 106.61 39.865 106.61 39.635 C 106.61 39.625 106.61 39.625 106.61 39.615 L 106.92 31.055 C 106.93 30.855 107.05 30.685 107.23 30.605 C 108.11 30.255 108.94 29.805 109.72 29.275 C 110.38 28.825 110.97 28.295 111.49 27.695 C 111.77 27.385 112.01 27.055 112.23 26.715 C 112.41 26.415 112.57 26.105 112.7 25.775 C 112.81 25.475 112.9 25.165 112.96 24.855 C 113.02 24.545 113.05 24.225 113.05 23.915 L 113 12.625 L 116.55 12.625 C 116.78 12.625 117.01 12.585 117.23 12.515 C 117.35 12.475 117.45 12.415 117.54 12.325 C 117.62 12.235 117.69 12.135 117.73 12.015 C 117.8 11.795 117.84 11.565 117.84 11.335 L 117.84 9.545 C 117.84 9.315 117.8 9.085 117.73 8.865 C 117.69 8.745 117.62 8.645 117.54 8.555 C 117.45 8.465 117.35 8.405 117.23 8.365 C 117.01 8.295 116.78 8.255 116.55 8.255 L 112.96 8.255 L 112.96 4.265 Z " fill-rule="evenodd" fill="rgb(0,0,0)"/></g></g></svg>